<?xml version="1.0" standalone="no"?>
<!DOCTYPE svg PUBLIC "-//W3C//DTD SVG 20010904//EN"
 "http://www.w3.org/TR/2001/REC-SVG-20010904/DTD/svg10.dtd">
<svg version="1.0" xmlns="http://www.w3.org/2000/svg"
 width="500.000000pt" height="500.000000pt" viewBox="0 0 500.000000 500.000000"
 preserveAspectRatio="xMidYMid meet">
<metadata>
Created by potrace 1.11, written by Peter Selinger 2001-2013
</metadata>
<g transform="translate(0.000000,500.000000) scale(0.100000,-0.100000)"
fill="#000000" stroke="none">
<path d="M2405 4953 c-116 -61 -148 -198 -66 -291 108 -124 311 -58 325 105
11 137 -143 248 -259 186z"/>
<path d="M1568 4830 c-45 -13 -82 -40 -108 -78 -35 -52 -36 -153 -1 -203 105
-154 341 -84 341 101 0 118 -121 212 -232 180z"/>
<path d="M3335 4818 c-23 -5 -58 -22 -78 -39 -128 -105 -63 -311 103 -327 138
-13 239 131 182 260 -35 80 -121 124 -207 106z"/>
<path d="M2380 4419 c-55 -25 -105 -71 -133 -124 -31 -58 -31 -173 1 -235 119
-231 462 -165 489 94 10 100 -38 193 -129 249 -63 39 -161 46 -228 16z"/>
<path d="M785 4276 c-106 -64 -120 -220 -27 -302 81 -71 218 -50 279 42 59 90
11 235 -90 273 -49 19 -118 13 -162 -13z"/>
<path d="M4004 4286 c-92 -40 -136 -165 -90 -254 22 -43 81 -90 121 -98 123
-23 229 61 228 182 -1 103 -79 184 -178 184 -27 -1 -64 -7 -81 -14z"/>
<path d="M1219 3935 c-104 -33 -182 -153 -173 -264 6 -68 23 -109 68 -159 94
-104 255 -113 360 -21 113 100 118 279 11 383 -68 66 -174 91 -266 61z"/>
<path d="M3595 3944 c-102 -25 -191 -130 -200 -234 -5 -63 23 -144 66 -194
161 -182 460 -62 452 182 -4 99 -60 184 -150 228 -37 17 -129 27 -168 18z"/>
<path d="M2393 3755 c-210 -62 -309 -297 -206 -487 100 -184 350 -230 511 -93
142 120 152 351 21 486 -86 89 -216 126 -326 94z"/>
<path d="M285 3575 c-44 -20 -60 -36 -85 -80 -87 -154 83 -334 242 -256 140
68 136 277 -8 337 -42 18 -110 17 -149 -1z"/>
<path d="M1749 3486 c-182 -47 -292 -239 -240 -422 25 -93 113 -186 209 -224
48 -19 147 -20 205 -3 211 63 304 307 189 501 -67 115 -231 182 -363 148z"/>
<path d="M3060 3486 c-252 -52 -350 -356 -178 -552 198 -225 580 -79 580 221
0 218 -190 374 -402 331z"/>
<path d="M1437 2816 c-91 -38 -134 -80 -179 -175 -79 -163 -5 -358 167 -441
118 -57 277 -28 370 66 109 111 129 288 47 418 -60 97 -150 148 -267 153 -68
3 -89 0 -138 -21z"/>
<path d="M735 2753 c-88 -29 -159 -114 -173 -206 -33 -212 179 -367 373 -273
144 71 184 258 85 393 -59 80 -187 119 -285 86z"/>
<path d="M4740 2700 c-66 -18 -106 -51 -129 -108 -40 -95 -3 -196 88 -241 51
-25 103 -26 154 -3 143 63 149 264 10 335 -35 18 -90 26 -123 17z"/>
<path d="M132 2669 c-135 -67 -132 -270 5 -331 156 -69 313 82 248 239 -20 48
-41 71 -87 94 -49 25 -113 24 -166 -2z"/>
<path d="M1736 2174 c-192 -60 -287 -258 -216 -448 85 -225 385 -282 552 -105
133 142 118 369 -33 491 -84 67 -207 92 -303 62z"/>
<path d="M3024 2169 c-226 -70 -302 -362 -143 -544 92 -105 271 -141 392 -79
120 62 190 174 189 305 -2 229 -218 386 -438 318z"/>
<path d="M2399 1906 c-174 -46 -284 -223 -246 -400 43 -200 275 -318 459 -234
73 34 128 85 161 150 32 64 37 85 38 158 0 72 -5 93 -38 158 -66 131 -231 205
-374 168z"/>
<path d="M275 1805 c-39 -18 -56 -33 -85 -74 -30 -44 -33 -129 -5 -181 76
-145 284 -130 338 25 43 123 -46 246 -176 245 -23 -1 -55 -7 -72 -15z"/>
<path d="M1237 1574 c-119 -30 -201 -149 -191 -275 15 -178 208 -290 369 -213
84 40 146 136 148 233 4 170 -160 298 -326 255z"/>
<path d="M3582 1572 c-224 -64 -251 -376 -42 -484 59 -30 166 -32 224 -3 175
85 201 318 51 443 -60 49 -155 67 -233 44z"/>
<path d="M2433 1089 c-131 -24 -222 -143 -210 -278 5 -65 26 -112 71 -159 53
-57 101 -77 186 -77 64 0 82 4 122 28 155 91 182 291 56 417 -59 59 -140 84
-225 69z"/>
<path d="M805 1066 c-115 -52 -147 -206 -62 -298 42 -45 84 -61 148 -56 101 7
171 79 171 176 0 56 -11 87 -47 130 -48 58 -141 79 -210 48z"/>
<path d="M4005 1066 c-121 -55 -148 -230 -47 -311 46 -37 67 -44 122 -45 169
-1 248 204 123 322 -51 48 -134 62 -198 34z"/>
<path d="M1505 541 c-48 -22 -69 -44 -90 -94 -45 -109 21 -234 136 -255 85
-16 166 26 201 106 70 157 -91 315 -247 243z"/>
<path d="M3283 537 c-100 -37 -150 -151 -109 -248 51 -121 216 -153 302 -57
33 35 54 83 54 120 0 83 -39 145 -112 178 -48 22 -88 24 -135 7z"/>
<path d="M2428 405 c-77 -26 -119 -76 -132 -155 -11 -75 32 -154 103 -189 129
-63 277 39 265 183 -10 113 -132 197 -236 161z"/>
</g>
</svg>
