<?xml version="1.0" encoding="utf-8"?>
<!-- Generator: Adobe Illustrator 23.0.3, SVG Export Plug-In . SVG Version: 6.00 Build 0)  -->
<svg version="1.1" id="Capa_1" xmlns="http://www.w3.org/2000/svg" xmlns:xlink="http://www.w3.org/1999/xlink" x="0px" y="0px"
	 viewBox="0 0 174.9 174.9" style="enable-background:new 0 0 174.9 174.9;" xml:space="preserve">
<style type="text/css">
	.st0{opacity:0.1;fill:#21005C;enable-background:new    ;}
	.st1{fill:#21005C;}
</style>
<circle class="st0" cx="87.4" cy="87.4" r="87.4"/>
<g>
	<path class="st1" d="M127,64.6l-7.2-7.2c-1-1-2.2-1.5-3.6-1.5c-1.4,0-2.6,0.5-3.6,1.5L77.9,92.2L62.3,76.6c-1-1-2.2-1.5-3.6-1.5
		c-1.4,0-2.6,0.5-3.6,1.5l-7.2,7.2c-1,1-1.5,2.2-1.5,3.6c0,1.4,0.5,2.6,1.5,3.6l19.2,19.2l7.2,7.2c1,1,2.2,1.5,3.6,1.5
		c1.4,0,2.6-0.5,3.6-1.5l7.2-7.2L127,71.8c1-1,1.5-2.2,1.5-3.6C128.5,66.8,128,65.6,127,64.6z"/>
</g>
</svg>
