<?xml version="1.0" encoding="utf-8"?>
<!-- Generator: Adobe Illustrator 23.0.3, SVG Export Plug-In . SVG Version: 6.00 Build 0)  -->
<svg version="1.1" id="Capa_1" xmlns="http://www.w3.org/2000/svg" xmlns:xlink="http://www.w3.org/1999/xlink" x="0px" y="0px"
	 viewBox="0 0 734 193" style="enable-background:new 0 0 734 193;" xml:space="preserve">
<style type="text/css">
	.st0{fill:#FFFFFF;}
</style>
<g>
	<circle class="st0" cx="96.5" cy="7.3" r="7.3"/>
	<circle class="st0" cx="33.4" cy="33.4" r="7.3"/>
	<circle class="st0" cx="7.3" cy="96.5" r="7.3"/>
	<circle class="st0" cx="33.4" cy="159.6" r="7.3"/>
	<circle class="st0" cx="96.5" cy="185.7" r="7.3"/>
	<circle class="st0" cx="159.6" cy="159.6" r="7.3"/>
	<circle class="st0" cx="159.6" cy="33.4" r="7.3"/>
	<circle class="st0" cx="187.1" cy="96" r="7.3"/>
	<circle class="st0" cx="131.8" cy="13.1" r="7.3"/>
	<circle class="st0" cx="62.4" cy="12.6" r="7.3"/>
	<circle class="st0" cx="13.1" cy="61.2" r="7.3"/>
	<circle class="st0" cx="12.6" cy="130.6" r="7.3"/>
	<circle class="st0" cx="61.2" cy="179.9" r="7.3"/>
	<circle class="st0" cx="130.6" cy="180.4" r="7.3"/>
</g>
<path class="st0" d="M558.9,57.8c0,2.1-0.7,3.9-2.2,5.3c-1.5,1.4-3.3,2.2-5.4,2.2c-2.1,0-3.8-0.7-5.2-2.2c-1.4-1.4-2.2-3.2-2.2-5.3
	c0-2.1,0.7-3.9,2.2-5.3c1.4-1.4,3.2-2.2,5.2-2.2c2.1,0,3.9,0.7,5.4,2.2C558.2,53.9,558.9,55.7,558.9,57.8z"/>
<g>
	<path class="st0" d="M244.1,71.1c2.3,0,5.2,0.5,8.6,1.4c3.4,1,6.3,2.2,8.6,3.8l-3.8,9.6c-2.6-1.2-4.9-2-7-2.6
		c-2.1-0.5-4.2-0.8-6.4-0.8c-3.7,0-6.8,1.4-9.2,4.2c-2.4,2.8-3.7,6.4-3.7,10.7s1.2,7.9,3.6,10.6c2.4,2.7,5.5,4.1,9.3,4.1
		c2.2,0,4.3-0.3,6.4-0.8c2.1-0.5,4.4-1.4,7-2.6l3.8,9.7c-2.1,1.6-4.9,2.9-8.3,3.8c-3.4,0.9-6.4,1.3-8.9,1.3c-5.3,0-10-1.1-14-3.2
		s-7.1-5.2-9.3-9.1c-2.2-3.9-3.2-8.6-3.2-13.8c0-5.3,1.1-9.9,3.2-13.9c2.2-4,5.2-7,9.3-9.2C234.1,72.1,238.8,71.1,244.1,71.1z"/>
	<path class="st0" d="M292.8,123.5c-5.3,0-10-1.1-14-3.2c-4-2.1-7.1-5.2-9.3-9.1c-2.2-3.9-3.3-8.6-3.3-13.8c0-5.3,1.1-9.9,3.3-13.9
		c2.2-4,5.3-7,9.3-9.2c4-2.2,8.7-3.2,14-3.2c5.3,0,10,1.1,14,3.2c4,2.1,7.1,5.2,9.3,9.1c2.2,3.9,3.3,8.6,3.3,13.8
		c0,5.3-1.1,9.9-3.3,13.9c-2.2,4-5.3,7-9.3,9.2C302.8,122.4,298.1,123.5,292.8,123.5z M305.6,97.2c0-4.3-1.2-7.8-3.6-10.6
		c-2.4-2.7-5.5-4.1-9.3-4.1c-3.7,0-6.8,1.4-9.2,4.2c-2.4,2.8-3.7,6.4-3.7,10.7s1.2,7.9,3.6,10.6c2.4,2.7,5.5,4.1,9.3,4.1
		c3.7,0,6.8-1.4,9.2-4.2C304.4,105.1,305.6,101.5,305.6,97.2z"/>
	<path class="st0" d="M392.7,72.4l-15.9,49.9h-11.2l-9.4-30.5l-8.9,30.5h-11.3l-15.6-49.9h14.3l7.3,29l7.2-29h14.7l7.7,29l7.1-29
		H392.7z"/>
	<path class="st0" d="M420.9,123.5c-5.3,0-10-1.1-14-3.2c-4-2.1-7.1-5.2-9.3-9.1c-2.2-3.9-3.3-8.6-3.3-13.8c0-5.3,1.1-9.9,3.3-13.9
		c2.2-4,5.3-7,9.3-9.2c4-2.2,8.7-3.2,14-3.2c5.3,0,10,1.1,14,3.2c4,2.1,7.1,5.2,9.3,9.1c2.2,3.9,3.3,8.6,3.3,13.8
		c0,5.3-1.1,9.9-3.3,13.9c-2.2,4-5.3,7-9.3,9.2C430.9,122.4,426.3,123.5,420.9,123.5z M433.8,97.2c0-4.3-1.2-7.8-3.6-10.6
		c-2.4-2.7-5.5-4.1-9.3-4.1c-3.7,0-6.8,1.4-9.2,4.2c-2.4,2.8-3.7,6.4-3.7,10.7s1.2,7.9,3.6,10.6c2.4,2.7,5.5,4.1,9.3,4.1
		c3.7,0,6.8-1.4,9.2-4.2C432.6,105.1,433.8,101.5,433.8,97.2z"/>
	<path class="st0" d="M477.5,85.6c-3.3,1.6-6.4,3.7-9.3,6.3v30.4h-13.4V72.4h7l4.4,8.3c2.4-2.1,5.2-4,8.4-5.8
		c3.2-1.7,6.1-2.6,8.5-2.6l2.7,10.7C483.6,83.1,480.8,83.9,477.5,85.6z"/>
	<path class="st0" d="M505.8,105.9v16.4h-13.3V50.8l13.3-1.1v40.9l21.4-19.6l7.5,9.5l-14,12.2l18.3,29.6h-15.3l-12.5-21.1
		L505.8,105.9z"/>
	<rect x="544.7" y="72.4" class="st0" width="13.4" height="49.9"/>
	<path class="st0" d="M596.1,81.8c-2.3,0-4.5,0.5-6.6,1.6c-2.1,1.1-4.3,2.5-6.8,4.3v34.6h-13.4V72.4h8.7l2.3,5.3
		c3.1-2.2,6.4-3.9,9.9-5.1c3.5-1.2,6.6-1.9,9.4-1.9c6.3,0,10.7,1.8,13.3,5.3c2.5,3.6,3.8,8.5,3.8,14.9v31.3h-13.4V91.6
		c0-3.1-0.6-5.5-1.9-7.2C600.1,82.7,598.4,81.8,596.1,81.8z"/>
	<path class="st0" d="M642.9,72.5h9l4.1,10.3h-13.2V104c0,2.7,0.6,4.8,1.9,6.5c1.3,1.6,3.1,2.5,5.4,2.5c1.8,0,3.6-0.4,5.5-1.3
		l3.9,9.7c-1,0.8-2.6,1.5-4.6,2.2c-2,0.6-3.9,0.9-5.5,0.9c-6.2,0-11.1-1.6-14.6-4.7c-3.5-3.2-5.2-7.6-5.2-13.3V82.8H623V72.5h6.7
		V60.7l13.3-2.4V72.5z"/>
	<path class="st0" d="M688.8,71.1c5,0,9.2,1.2,12.6,3.5c3.4,2.3,6,5.5,7.6,9.4c1.6,3.9,2.5,8.3,2.5,13.2v4.1h-33.6
		c0.7,3.5,2.2,6.2,4.5,8c2.3,1.9,5.8,2.8,10.5,2.8c2.7,0,5.2-0.4,7.4-1.1c2.2-0.8,4.6-1.9,7.1-3.3l3.9,9.7c-2.5,2-5.3,3.5-8.2,4.6
		c-2.9,1.1-6.4,1.6-10.5,1.6c-9.5,0-16.6-2.3-21.5-6.9c-4.9-4.6-7.4-11-7.4-19.2c0-5.3,1-9.9,3-13.9c2-4,4.9-7,8.7-9.2
		C679.2,72.1,683.6,71.1,688.8,71.1z M688.5,82.5c-2.7,0-5,0.8-6.9,2.5c-1.9,1.7-3.1,4.1-3.6,7.4h20.9c-0.7-3.3-1.9-5.8-3.7-7.4
		C693.5,83.3,691.2,82.5,688.5,82.5z"/>
	<path class="st0" d="M734,49.7v72.6h-13.3V49.8L734,49.7z"/>
</g>
<g>
	<circle class="st0" cx="96.5" cy="60.3" r="13.2"/>
	<circle class="st0" cx="70.9" cy="70.9" r="13.2"/>
	<circle class="st0" cx="60.3" cy="96.5" r="13.2"/>
	<circle class="st0" cx="70.9" cy="122.1" r="13.2"/>
	<circle class="st0" cx="96.5" cy="132.7" r="13.2"/>
	<circle class="st0" cx="122.1" cy="122.1" r="13.2"/>
	<circle class="st0" cx="122.1" cy="70.9" r="13.2"/>
</g>
<g>
	<circle class="st0" cx="96.5" cy="31" r="10.2"/>
	<circle class="st0" cx="50.2" cy="50.2" r="10.2"/>
	<circle class="st0" cx="31" cy="96.5" r="10.2"/>
	<circle class="st0" cx="50.2" cy="142.8" r="10.2"/>
	<circle class="st0" cx="96.5" cy="162" r="10.2"/>
	<circle class="st0" cx="142.8" cy="142.8" r="10.2"/>
	<circle class="st0" cx="142.8" cy="50.2" r="10.2"/>
</g>
</svg>
